<svg width="160" height="100" viewBox="0 0 160 100" fill="none" xmlns="http://www.w3.org/2000/svg">
<path d="M0 8C0 3.58172 3.58172 0 8 0H80V100H8C3.58172 100 0 96.4183 0 92V8Z" fill="#6284FE" fill-opacity="0.9"/>
<path d="M81 1H152C155.866 1 159 4.13401 159 8V92C159 95.866 155.866 99 152 99H81V1Z" fill="#6284FE" stroke="#6284FE" stroke-width="2"/>
<rect x="98" y="17" width="44" height="66" rx="7" stroke="white" stroke-width="2"/>
<rect x="12" y="16" width="54" height="4" rx="2" fill="white"/>
<rect x="12" y="32" width="40" height="4" rx="2" fill="white"/>
<rect x="12" y="64" width="54" height="4" rx="2" fill="white"/>
<rect x="12" y="80" width="40" height="4" rx="2" fill="white"/>
</svg>
