<svg width="160" height="100" viewBox="0 0 160 100" fill="none" xmlns="http://www.w3.org/2000/svg">
<path d="M0 8C0 3.58172 3.58172 0 8 0H80V100H8C3.58172 100 0 96.4183 0 92V8Z" fill="#FBB1B3"/>
<path d="M80 0H152C156.418 0 160 3.58172 160 8V92C160 96.4183 156.418 100 152 100H80V0Z" fill="#F19EA0"/>
<rect x="98" y="17" width="44" height="66" rx="7" stroke="white" stroke-width="2"/>
<rect x="12" y="16" width="54" height="4" rx="2" fill="white"/>
<rect x="12" y="32" width="40" height="4" rx="2" fill="white"/>
<rect x="12" y="64" width="54" height="4" rx="2" fill="white"/>
<rect x="12" y="80" width="40" height="4" rx="2" fill="white"/>
</svg>
